<svg id="Layer_1" data-name="Layer 1" xmlns="http://www.w3.org/2000/svg" viewBox="0 0 32 32">
	<defs>
		<style>.path-color {fill: black;}</style>
	</defs>
    <title>GeneralInterface-FreeShipping</title>
    <path class="path-color" d="M14.76,9.65H19.3a.86.86,0,1,0,0-1.71H14.76a.86.86,0,1,0,0,1.71Z" />
    <path class="path-color" d="M29.27,14.46a2.3,2.3,0,0,0-3.22,0l-.7.63V5.34a.85.85,0,0,0-.85-.86H9.87A.85.85,0,0,0,9,5.34V8.82a.86.86,0,1,0,1.71,0V6.19H23.64V16.43a1,1,0,0,0,0,.17l-1.13,1a2.18,2.18,0,0,0-2-1.21H12a.79.79,0,0,0-.45.13l-.83.5V14.66a.86.86,0,1,0-1.71,0V18.1L3.67,21.4A.86.86,0,0,0,4.12,23a.84.84,0,0,0,.45-.13l7.68-4.74h8.33a.49.49,0,0,1,.5.49.5.5,0,0,1-.49.5l-4.27,0h0a.86.86,0,0,0-.86.85.85.85,0,0,0,.86.86l4.27,0h.16l.55,0a.81.81,0,0,0,.53-.22l5.41-4.86a.63.63,0,0,1,1.06.43.66.66,0,0,1-.16.43l-6.72,6.24h-8a.84.84,0,0,0-.46.13l-4.72,3A.86.86,0,0,0,8,27.12a.86.86,0,0,0,1.18.27l4.51-2.87h8a.86.86,0,0,0,.59-.23l7-6.49A2.35,2.35,0,0,0,30,16.12,2.3,2.3,0,0,0,29.27,14.46Z" />
    <path class="path-color" d="M6.09,12.61h0l7.25,0a.86.86,0,0,0,.85-.86.85.85,0,0,0-.85-.86h0l-7.24,0a.86.86,0,0,0,0,1.72Z" />
    <path class="path-color" d="M7.86,14.68A.86.86,0,0,0,7,13.82H2.86a.86.86,0,1,0,0,1.71H7A.86.86,0,0,0,7.86,14.68Z" />
</svg>
